# xmcd
#
# Track frame offsets:
#	150
#	14711
#	29219
#	48153
#	66770
#	79405
#	96983
#	114193
#	126719
#	148586
#	165906
#	180875
#
# Disc length: 2678 seconds
#
# Revision: 2
# Processed by: cddbd v1.5.2PL0 Copyright (c) Steve Scherf et al.
# Submitted via: audiograbber 1.83.01
#
DISCID=a40a740c
DTITLE=Tammy Cochran - Where I Am
DYEAR=2007
DGENRE=Country
TTITLE0=So Long
TTITLE1=And More
TTITLE2=Nobody's Home
TTITLE3=Gone
TTITLE4=The Ride Of Your Life
TTITLE5=Where I Am
TTITLE6=On My Side Of The World
TTITLE7=As Soon As I'm Over You
TTITLE8=In Our House
TTITLE9=High Wire
TTITLE10=Long Way Down
TTITLE11=Chemistry
EXTD=
EXTT0=
EXTT1=
EXTT2=
EXTT3=
EXTT4=
EXTT5=
EXTT6=
EXTT7=
EXTT8=
EXTT9=
EXTT10=
EXTT11=
PLAYORDER=
